<svg id="bandwidth-logo" xmlns="http://www.w3.org/2000/svg" viewBox="0 0 302.59 63.91"><title>bandwidth-logo</title><path class="logo-mark" d="M43.68,16.18c-2.23-.47-2.5.69-1.54,2.82,5.07,11.18.56,22.1-4.28,24.81a5.93,5.93,0,0,1-.13-1.1c-.57-5.31-2.59-9.92-4-9.92-1.08,0-.4,4.54-.7,8.56-1.79-1.06-2.89-1.8-4.8-1.47-2.75.48-6.38,6.27-6.52,5.44-1.09-6.71,1.52-17,5.14-18.13.56-.22,1.54.63,3.74,1.46,1.72.64,1.5-1.06.71-1.69a8.29,8.29,0,0,0-8.83-.62C17.09,29,14.62,41.05,17.55,46A7.72,7.72,0,0,0,23,49.75c3.65.42,4.76-.34,7.71-3.94a3.42,3.42,0,0,0,1.39.67c-2.4,7.45-11.38,13.73-13.32,12.65C9.38,52.73,12,32.3,18.63,14.33c1.08-2.92,2.86-8.09,3.24-10,1-4.85-5.14-5.78-9.33-2.23-3,2.57-6,8.59-8.35,15.57-7.6,22.18-4.37,40.93,9.24,45,15.66,4.67,23.11-5.07,24.27-14.86a21,21,0,0,0,2.88.15c4.85-.1,11.73-2.6,13.78-13.18C55.92,26.82,50.78,17.53,43.68,16.18Z" fill="#8a8a8f" fill-rule="evenodd"/><path class="logo-text" d="M84.27,23.28a12,12,0,0,0-8.72,3.92V11.28H73V46.46a23.25,23.25,0,0,0,8.56,1.8,13.4,13.4,0,0,0,9.81-3.62A12.88,12.88,0,0,0,95,35a12,12,0,0,0-3-8.45A10.06,10.06,0,0,0,84.27,23.28Zm5,19.48a10.61,10.61,0,0,1-7.73,3,16.79,16.79,0,0,1-5.94-1.12V30.07q4.1-4.65,8.4-4.65a7.53,7.53,0,0,1,6,2.74,10.35,10.35,0,0,1,2.36,7A10.17,10.17,0,0,1,89.22,42.76Zm48.12-19.48q-4.94,0-8,4.65h-.1V23.75H126.7v24h2.57V30.94q3.1-5.15,7.9-5.15,6.57,0,6.57,8.31V47.79h2.57V33.13a10.19,10.19,0,0,0-2.44-7.24A8.52,8.52,0,0,0,137.34,23.28Zm86.09,24.51H226v-24h-2.6Zm0-32H226V11.26h-2.6Zm76.89,10.11a8.52,8.52,0,0,0-6.54-2.61q-4.94,0-8,4.65h-.11V11.28h-2.57V47.79h2.57V30.94q3.2-5.15,7.9-5.15,6.56,0,6.57,8.31V47.79h2.57V33.08A10.11,10.11,0,0,0,300.32,25.89ZM117.6,45.67q-.58,0-.58-1.23V29.55a5.49,5.49,0,0,0-2.13-4.66,8.72,8.72,0,0,0-5.41-1.61,14.81,14.81,0,0,0-7.8,2.56v2.64q4-3.06,7.38-3.06,5.36,0,5.36,4.91v3.06q-6.78.34-10.43,2.6a7,7,0,0,0-3.65,6.18,5.7,5.7,0,0,0,1.89,4.31,6.5,6.5,0,0,0,4.62,1.78,12.29,12.29,0,0,0,7.56-3,6.64,6.64,0,0,0,.5,2.39,1.29,1.29,0,0,0,1.19.59h.09A11.51,11.51,0,0,0,121.06,47V44.57a12.38,12.38,0,0,1-3.45,1.11ZM114.43,43q-3.41,3.11-6.72,3.11A5.12,5.12,0,0,1,104.29,45a3.56,3.56,0,0,1-1.37-2.82q0-3,3.27-4.9a14.93,14.93,0,0,1,8.23-1.74Zm95,.89h0a3.88,3.88,0,0,1-.94,1.83,3.85,3.85,0,0,1-1-1.79l-5.6-16.74c-1-2.85-2.29-3.46-3.24-3.46s-2.29.61-3.24,3.46L189.82,44a3.85,3.85,0,0,1-1,1.79,3.88,3.88,0,0,1-.94-1.83h0l-6.27-20.16h-2.5l6.5,20.88h0c.91,2.91,2.24,3.53,3.21,3.54h0c1,0,2.29-.61,3.24-3.46L197.69,28a3.86,3.86,0,0,1,1-1.79h0a3.85,3.85,0,0,1,1,1.79l5.6,16.74c1,2.85,2.29,3.46,3.24,3.46h0c1,0,2.31-.63,3.21-3.54h0l6.5-20.88-2.5,0Zm59.78.74a11.59,11.59,0,0,1-.56-4.53V25.84h6.78V23.75h-6.78v-8s-2.57.06-2.57,3.38v4.59h-6.51v2.09h6.51v17.3a4.67,4.67,0,0,0,1.6,3.76,6,6,0,0,0,4,1.36,11.44,11.44,0,0,0,5-1.23V44.58a10.72,10.72,0,0,1-4.41,1.18Q269.76,45.75,269.2,44.67ZM171.46,25.25a15.87,15.87,0,0,0-7.14-1.93,11.72,11.72,0,0,0-8.73,3.55,12.23,12.23,0,0,0-3.48,8.91,12.25,12.25,0,0,0,3.53,8.9,11.66,11.66,0,0,0,8.68,3.62A12.09,12.09,0,0,0,171.46,46v1.88h2.6V11.32h-2.6Zm0,18.35a11.26,11.26,0,0,1-6.51,2.2,9.77,9.77,0,0,1-7.22-2.9,9.88,9.88,0,0,1-2.89-7.27,9.64,9.64,0,0,1,2.7-7,9.23,9.23,0,0,1,6.88-2.76,12.82,12.82,0,0,1,7,2.25ZM252,25.25a15.87,15.87,0,0,0-7.14-1.93,11.72,11.72,0,0,0-8.73,3.55,12.23,12.23,0,0,0-3.48,8.91,12.25,12.25,0,0,0,3.53,8.9,11.65,11.65,0,0,0,8.68,3.62A12.09,12.09,0,0,0,252,46v1.88h2.6V11.32H252Zm0,18.35a11.26,11.26,0,0,1-6.51,2.2,9.77,9.77,0,0,1-7.22-2.9,9.88,9.88,0,0,1-2.89-7.27,9.64,9.64,0,0,1,2.7-7,9.23,9.23,0,0,1,6.88-2.76,12.82,12.82,0,0,1,7,2.25Z" fill="#8a8a8f"/></svg>
